<svg width="25" height="25" viewBox="0 0 25 25" fill="none" xmlns="http://www.w3.org/2000/svg">
<path d="M5.53516 19.6872C5.99633 19.1707 8.1562 16.7939 8.78916 16.7939H15.4816C16.3988 16.7939 18.2711 18.7641 18.7352 19.4586M21.7352 12.4872C21.7352 17.7891 17.4371 22.0872 12.1352 22.0872C6.83322 22.0872 2.53516 17.7891 2.53516 12.4872C2.53516 7.18527 6.83322 2.88721 12.1352 2.88721C17.4371 2.88721 21.7352 7.18527 21.7352 12.4872ZM15.574 9.21516C15.574 7.38365 14.0279 5.88721 12.1354 5.88721C10.2431 5.88721 8.69689 7.38365 8.69689 9.21516C8.69689 11.0467 10.2431 12.5431 12.1354 12.5431C14.0278 12.5431 15.574 11.0467 15.574 9.21516Z" stroke="#222124" stroke-width="2"/>
</svg>
